#!OML:ASF I:\Actors\actors\Patient Classification 2\Patient 1\Session 1\actor1.ASF
:FULLY-SPECIFIED
:DEGREES
534
root -0.587868 18.9212 5.03589 18.0257 -4.49077 2.28912
lowerback 27.075 -3.38362 4.4805
upperback 2.94666 -2.59155 3.59213
thorax -11.7823 -1.29602 2.45368
lowerneck -6.79829 -4.09952 -3.48119
upperneck -3.25649 -5.25233 1.58117
head 0.256452 -2.6015 0.94015
rclavicle -1.90833e-014 2.06736e-014
rhumerus 10.8167 13.9338 -47.0837
rradius 148.088
rwrist -22.0245
rhand -0.442871 -46.5014
rfingers 7.12502
rthumb 25.1661 -74.8624
lclavicle -1.90833e-014 2.06736e-014
lhumerus 15.1273 -36.5856 55.9317
lradius 139.192
lwrist 11.2617
lhand -16.667 -38.6952
lfingers 7.12502
lthumb 9.55663 -8.93194
rfemur -16.2473 7.51975 8.10732
rtibia 3.05911
rfoot -16.6616 -17.1915
rtoes -8.67569
lfemur -28.5989 8.50374 -19.2075
ltibia 24.8885
lfoot -13.8159 8.54292
ltoes -57.052
535
root -0.588258 18.9247 5.04754 18.0783 -4.48076 2.20942
lowerback 27.0122 -3.42989 4.45067
upperback 2.95409 -2.66125 3.62303
thorax -11.7375 -1.32591 2.52729
lowerneck -6.96903 -4.3805 -3.77202
upperneck -3.38299 -5.60022 1.96275
head 0.275959 -2.77021 1.09636
rclavicle -4.69132e-014 6.83819e-014
rhumerus 10.3549 15.142 -47.4882
rradius 147.824
rwrist -20.5898
rhand -0.576575 -45.9424
rfingers 7.12502
rthumb 25.038 -74.3213
lclavicle -4.69132e-014 6.83819e-014
lhumerus 13.5485 -37.2759 57.2022
lradius 139.291
lwrist 10.7109
lhand -16.8941 -40.6716
lfingers 7.12502
lthumb 9.33753 -10.8984
rfemur -15.9146 7.52836 8.18768
rtibia 2.37744
rfoot -16.3716 -17.4123
rtoes -8.62401
lfemur -28.5895 8.33398 -19.0557
ltibia 24.9137
lfoot -14.0448 8.56913
ltoes -56.4299
536
root -0.587781 18.9261 5.05791 18.0682 -4.52996 2.15602
lowerback 26.9657 -3.46215 4.37962
upperback 2.98911 -2.72724 3.63839
thorax -11.6679 -1.35272 2.60449
lowerneck -6.9182 -4.709 -3.91501
upperneck -3.65511 -6.03122 2.20977
head 0.208323 -2.98356 1.18999
rclavicle 2.54444e-014 -5.56597e-014
rhumerus 9.93448 16.4758 -48.0453
rradius 147.578
rwrist -19.4356
rhand -1.64783 -45.7918
rfingers 7.12502
rthumb 24.0111 -74.31
lclavicle 2.54444e-014 -5.56597e-014
lhumerus 11.9525 -38.0374 58.5999
lradius 139.362
lwrist 10.3313
lhand -17.5633 -41.9774
lfingers 7.12502
lthumb 8.69176 -12.1764
rfemur -15.1824 7.59089 8.21167
rtibia 0.959462
rfoot -15.786 -17.8611
rtoes -8.48693
lfemur -28.53 8.14714 -18.907
ltibia 25.0103
lfoot -14.428 8.56014
ltoes -55.3539
537
root -0.586717 18.9233 5.05962 18.127 -4.65428 1.85093
lowerback 27.021 -3.4677 4.50479
upperback 2.98443 -2.68729 3.6933
thorax -11.7058 -1.33893 2.58511
lowerneck -6.89257 -5.05505 -3.99943
upperneck -3.84931 -6.48838 2.44917
head 0.169246 -3.21118 1.26941
rclavicle -4.77083e-015 -1.35174e-014
rhumerus 9.79463 17.7194 -48.508
rradius 147.36
rwrist -18.7754
rhand -3.07582 -46.2577
rfingers 7.12502
rthumb 22.6412 -74.9496
lclavicle -4.77083e-015 -1.35174e-014
lhumerus 10.5123 -38.7682 59.9927
lradius 139.425
lwrist 10.4765
lhand -18.2549 -42.5522
lfingers 7.12502
lthumb 8.02436 -12.7245
rfemur -14.8193 7.79988 8.47354
rtibia 2.22639e-014
rfoot -15.4206 -18.1691
rtoes -8.12403
lfemur -28.5724 8.11618 -18.5362
ltibia 25.0966
lfoot -14.6905 8.67819
ltoes -54.7775
538
root -0.581876 18.9201 5.05972 18.1972 -4.75828 1.55176
lowerback 27.0603 -3.47609 4.68437
upperback 2.97366 -2.63841 3.72693
thorax -11.7457 -1.3243 2.50651
lowerneck -6.98152 -5.46633 -4.13471
upperneck -3.81771 -7.02384 2.76645
head 0.229061 -3.4771 1.37305
rclavicle -7.23576e-014 4.13472e-014
rhumerus 10.0218 18.6723 -48.9302
rradius 147.152
rwrist -19.061
rhand -4.17935 -47.0015
rfingers 7.12502
rthumb 21.5817 -75.8189
lclavicle -7.23576e-014 4.13472e-014
lhumerus 9.33056 -39.3319 61.2792
lradius 139.427
lwrist 10.7454
lhand -18.5397 -42.8189
lfingers 7.12502
lthumb 7.74947 -12.9809
rfemur -14.9441 7.98324 8.72718
rtibia 4.92986e-014
rfoot -15.444 -18.157
rtoes -7.76052
lfemur -28.6394 8.15006 -18.2233
ltibia 25.1492
lfoot -14.7775 8.81205
ltoes -54.6885
539
root -0.576027 18.9199 5.07245 18.0862 -4.69884 1.83586
lowerback 26.9387 -3.49667 4.49025
upperback 3.0352 -2.74653 3.62631
thorax -11.606 -1.36771 2.53039
lowerneck -6.98726 -5.98201 -4.43093
upperneck -3.79334 -7.68995 3.21563
head 0.293197 -3.80627 1.5428
rclavicle -1.59028e-014 1.59028e-015
rhumerus 10.465 19.2338 -49.453
rradius 147.035
rwrist -20.4979
rhand -4.74082 -48.3228
rfingers 7.12502
rthumb 21.0424 -77.2012
lclavicle -1.59028e-014 1.59028e-015
lhumerus 8.44555 -39.7388 62.4299
lradius 139.295
lwrist 10.7109
lhand -18.5221 -42.637
lfingers 7.12502
lthumb 7.76639 -12.7996
rfemur -14.7609 7.84165 8.43776
rtibia -1.03368e-014
rfoot -15.4483 -18.1357
rtoes -7.90038
lfemur -28.5242 8.12475 -18.5617
ltibia 25.1875
lfoot -14.7873 8.66446
ltoes -54.6868
